<svg width="80" height="80" viewBox="0 0 80 80" fill="none" xmlns="http://www.w3.org/2000/svg">
<path d="M39.99 76.3101C59.8722 76.3101 75.99 60.1923 75.99 40.3101C75.99 20.4278 59.8722 4.31006 39.99 4.31006C20.1077 4.31006 3.98999 20.4278 3.98999 40.3101C3.98999 60.1923 20.1077 76.3101 39.99 76.3101Z" fill="#E2FCE8"/>
<path d="M54.57 60.93H21.56V31.3L30.87 22.25H54.57V60.93Z" fill="#F7FFF8" stroke="#46AF5F" stroke-width="2" stroke-linecap="round" stroke-linejoin="round"/>
<path d="M27.44 48.8198H41.63" stroke="#46AF5F" stroke-width="2" stroke-linecap="round" stroke-linejoin="round"/>
<path d="M27.44 43.8198H41.63" stroke="#46AF5F" stroke-width="2" stroke-linecap="round" stroke-linejoin="round"/>
<path d="M27.44 38.8198H41.63" stroke="#46AF5F" stroke-width="2" stroke-linecap="round" stroke-linejoin="round"/>
<path d="M29.82 32.04L30.87 22.25L21.56 31.3L29.82 32.04Z" fill="#87E299" stroke="#46AF5F" stroke-width="2" stroke-linecap="round" stroke-linejoin="round"/>
<path d="M46.21 43.8198H59.57C60.5 43.8198 61.25 44.5698 61.25 45.4998V48.1198H44.52V45.4998C44.52 44.5698 45.27 43.8198 46.2 43.8198H46.21Z" fill="#D3FFDC" stroke="#46AF5F" stroke-width="2" stroke-linecap="round" stroke-linejoin="round"/>
<path d="M59.73 48.1299H46.06V50.9099H59.73V48.1299Z" fill="#D3FFDC" stroke="#46AF5F" stroke-width="2" stroke-linecap="round" stroke-linejoin="round"/>
<path d="M57.47 29.5798L57.23 29.4598C56.74 29.2198 56.2 29.0898 55.65 29.0898H50.14C49.59 29.0898 49.05 29.2198 48.56 29.4598L48.32 29.5798C46.27 30.5898 45.9 33.3698 47.61 34.8798C52.37 39.6398 47.61 43.8198 47.61 43.8198H58.17C58.17 43.8198 53.41 39.6398 58.17 34.8798C59.89 33.3698 59.52 30.5898 57.46 29.5798H57.47Z" fill="#D3FFDC" stroke="#46AF5F" stroke-width="2" stroke-linecap="round" stroke-linejoin="round"/>
</svg>
