<svg width="80" height="80" viewBox="0 0 80 80" fill="none" xmlns="http://www.w3.org/2000/svg">
<path d="M39.99 76.3101C59.8722 76.3101 75.99 60.1923 75.99 40.3101C75.99 20.4278 59.8722 4.31006 39.99 4.31006C20.1077 4.31006 3.98999 20.4278 3.98999 40.3101C3.98999 60.1923 20.1077 76.3101 39.99 76.3101Z" fill="#FFF8EC"/>
<path d="M54.57 60.93H21.56V31.3L30.87 22.25H54.57V60.93Z" fill="#FFE0B3" stroke="#E59E19" stroke-width="2" stroke-linecap="round" stroke-linejoin="round"/>
<path d="M50.82 63.9401C55.8955 63.9401 60.01 59.8256 60.01 54.7501C60.01 49.6746 55.8955 45.5601 50.82 45.5601C45.7445 45.5601 41.63 49.6746 41.63 54.7501C41.63 59.8256 45.7445 63.9401 50.82 63.9401Z" fill="white" stroke="#E59E19" stroke-width="2" stroke-linecap="round" stroke-linejoin="round"/>
<path d="M49.37 52.9699L50.92 52.1899V58.1999" fill="white"/>
<path d="M49.37 52.9699L50.92 52.1899V58.1999" stroke="#E59E19" stroke-width="2" stroke-linecap="round" stroke-linejoin="round"/>
<path d="M49.38 58.2002H52.32" stroke="#E59E19" stroke-width="2" stroke-linecap="round" stroke-linejoin="round"/>
<path d="M50.85 50.04H50.89" stroke="#E59E19" stroke-width="2" stroke-linecap="round" stroke-linejoin="round"/>
<path d="M27.44 45.3101H41.63" stroke="#E59E19" stroke-width="2" stroke-linecap="round" stroke-linejoin="round"/>
<path d="M27.44 40.3101H41.63" stroke="#E59E19" stroke-width="2" stroke-linecap="round" stroke-linejoin="round"/>
<path d="M27.44 35.3101H50.25" stroke="#E59E19" stroke-width="2" stroke-linecap="round" stroke-linejoin="round"/>
<path d="M29.82 32.04L30.87 22.25L21.56 31.3L29.82 32.04Z" fill="#FFC271" stroke="#E59E19" stroke-width="2" stroke-linecap="round" stroke-linejoin="round"/>
</svg>
