<svg width="80" height="80" viewBox="0 0 80 80" fill="none" xmlns="http://www.w3.org/2000/svg">
<path d="M39.99 76.3101C59.8722 76.3101 75.99 60.1923 75.99 40.3101C75.99 20.4278 59.8722 4.31006 39.99 4.31006C20.1077 4.31006 3.98999 20.4278 3.98999 40.3101C3.98999 60.1923 20.1077 76.3101 39.99 76.3101Z" fill="#FFF8EC"/>
<path d="M63.27 22.9299C63.27 22.9299 61.47 26.5399 56.07 27.7199C54.02 28.1699 48.19 27.1399 46.72 33.1899L44.56 33.2299L43.39 30.2599L43.57 22.9299L37.67 23.0099L37.64 23.0299C37.06 23.0299 36.53 23.2799 36.12 23.6999C35.71 24.1199 35.49 24.6899 35.51 25.2699L35.6 30.2199L34.78 33.3999L33.69 33.4199V33.3899C32.31 27.0899 26.36 28.1699 24.28 27.7099C18.88 26.5299 17.08 22.9199 17.08 22.9199C17.08 22.9199 14.15 48.4699 33.43 43.9599L33.45 43.1999C33.52 43.7099 33.63 44.2099 33.82 44.6999C34.52 46.6099 35.99 48.2799 37.52 49.2699L33.59 62.4799C34.63 62.7699 35.68 62.9799 36.74 63.1299C38.35 63.3499 39.91 62.4699 40.54 60.9799C41.16 62.4499 42.71 63.2799 44.28 63.0199C45.36 62.8399 46.44 62.5899 47.51 62.2599L43.12 49.1399C44.63 48.0799 46.04 46.3499 46.66 44.3899C46.77 44.0399 46.85 43.6899 46.9 43.3399L46.92 43.9599C66.2 48.4699 63.27 22.9199 63.27 22.9199V22.9299Z" fill="#FFE0B3"/>
<path d="M35.53 26.3101L33.78 25.6201" stroke="#E59E19" stroke-width="2" stroke-linecap="round" stroke-linejoin="round"/>
<path d="M46.62 42.2099C46.63 42.9499 46.52 43.6799 46.29 44.3899C45.67 46.3599 44.25 48.0899 42.75 49.1499C41.79 49.8199 40.79 50.2199 39.94 50.2399C39.1 50.2599 38.12 49.8999 37.15 49.2799C35.62 48.2899 34.15 46.6199 33.45 44.7099C33.18 43.9799 33.01 43.2199 33 42.4499L32.84 33.4299L39.65 33.3199V33.2999L46.47 33.1899L46.63 42.2099H46.62Z" stroke="#E59E19" stroke-width="2" stroke-linecap="round" stroke-linejoin="round"/>
<path d="M24.41 51.5498C26.94 54.7898 30.28 57.2598 34.07 58.6698" stroke="#E59E19" stroke-width="2" stroke-linecap="round" stroke-linejoin="round"/>
<path d="M45.97 58.6901C49.88 57.1801 53.29 54.5201 55.79 51.1001" stroke="#E59E19" stroke-width="2" stroke-linecap="round" stroke-linejoin="round"/>
<path d="M33.45 44.7197L29.45 56.0297" stroke="#E59E19" stroke-width="2" stroke-linecap="round" stroke-linejoin="round"/>
<path d="M50.84 55.9499L46.29 44.3999" stroke="#E59E19" stroke-width="2" stroke-linecap="round" stroke-linejoin="round"/>
<path d="M37.47 22.9999L43.55 22.8999L43.39 29.5999L43.88 33.1699L34.63 33.2699L35.57 29.6099L35.49 25.0799C35.47 24.5499 35.68 24.0299 36.05 23.6399C36.42 23.2499 36.91 23.0199 37.44 23.0299L37.47 23.0099V22.9999Z" stroke="#E59E19" stroke-width="2" stroke-linecap="round" stroke-linejoin="round"/>
<path d="M33.32 33.3997C31.94 27.0997 25.99 28.1797 23.91 27.7197C18.51 26.5397 16.71 22.9297 16.71 22.9297C16.71 22.9297 13.78 48.4797 33.06 43.9697" stroke="#E59E19" stroke-width="2" stroke-linecap="round" stroke-linejoin="round"/>
<path d="M46.55 43.9697C65.83 48.4797 62.9 22.9297 62.9 22.9297C62.9 22.9297 61.1 26.5397 55.7 27.7197C53.62 28.1797 47.67 27.0997 46.29 33.3997" stroke="#E59E19" stroke-width="2" stroke-linecap="round" stroke-linejoin="round"/>
<path d="M42.75 49.1499L47.14 62.2699C46.08 62.5899 45 62.8399 43.91 63.0299C42.34 63.2899 40.79 62.4599 40.17 60.9899C39.54 62.4899 37.98 63.3599 36.37 63.1399C35.31 62.9999 34.26 62.7799 33.22 62.4899L37.15 49.2799" stroke="#E59E19" stroke-width="2" stroke-linecap="round" stroke-linejoin="round"/>
</svg>
