<svg width="80" height="80" viewBox="0 0 80 80" fill="none" xmlns="http://www.w3.org/2000/svg">
<path d="M39.99 76.3101C59.8722 76.3101 75.99 60.1923 75.99 40.3101C75.99 20.4278 59.8722 4.31006 39.99 4.31006C20.1077 4.31006 3.98999 20.4278 3.98999 40.3101C3.98999 60.1923 20.1077 76.3101 39.99 76.3101Z" fill="#FFF8EC"/>
<path d="M50.99 18.4399H21.21C19.29 18.4399 17.74 19.9999 17.74 21.9099V25.1199H21.42V60.4599H54.47V21.9099C54.47 19.9899 52.91 18.4399 51 18.4399H50.99Z" fill="#FFE0B3"/>
<path d="M51.03 18.4399C49.11 18.4399 47.56 19.9999 47.56 21.9099V25.1199H17.84V21.9099C17.84 19.9899 19.4 18.4399 21.31 18.4399H51.03Z" fill="#FFC271" stroke="#E59E19" stroke-width="2" stroke-linecap="round" stroke-linejoin="round"/>
<path d="M54.58 21.9099V60.4599H21.52V25.1199H47.56V21.9099C47.56 19.9899 49.12 18.4399 51.03 18.4399H51.1C53.02 18.4399 54.57 19.9999 54.57 21.9099H54.58Z" stroke="#E59E19" stroke-width="2" stroke-linecap="round" stroke-linejoin="round"/>
<path d="M26.09 30.5298H39.5" stroke="#E59E19" stroke-width="2" stroke-linecap="round" stroke-linejoin="round"/>
<path d="M26.09 35.3101H39.64" stroke="#E59E19" stroke-width="2" stroke-linecap="round" stroke-linejoin="round"/>
<path d="M26.09 40.0898H40.27" stroke="#E59E19" stroke-width="2" stroke-linecap="round" stroke-linejoin="round"/>
<path d="M48 39V56L53.5 49.7775L59 56V39H48Z" fill="white" stroke="#E59E19" stroke-width="2" stroke-linecap="round" stroke-linejoin="round"/>
<path d="M53.22 28.6602L53.96 30.0602C54.25 30.6102 54.97 30.7502 55.45 30.3602L56.67 29.3502L56.82 30.9302C56.88 31.5502 57.49 31.9602 58.08 31.7702L59.6 31.3002L59.13 32.8202C58.95 33.4102 59.36 34.0302 59.97 34.0802L61.55 34.2302L60.54 35.4502C60.14 35.9302 60.29 36.6502 60.84 36.9402L62.24 37.6802L60.84 38.4202C60.29 38.7102 60.15 39.4302 60.54 39.9102L61.55 41.1302L59.97 41.2802C59.35 41.3402 58.94 41.9502 59.13 42.5402L59.6 44.0602L58.08 43.5902C57.49 43.4102 56.87 43.8202 56.82 44.4302L56.67 46.0102L55.45 45.0002C54.97 44.6002 54.25 44.7502 53.96 45.3002L53.22 46.7002L52.48 45.3002C52.19 44.7502 51.47 44.6102 50.99 45.0002L49.77 46.0102L49.62 44.4302C49.56 43.8102 48.95 43.4002 48.36 43.5902L46.84 44.0602L47.31 42.5402C47.49 41.9502 47.08 41.3302 46.47 41.2802L44.89 41.1302L45.9 39.9102C46.3 39.4302 46.15 38.7102 45.6 38.4202L44.2 37.6802L45.6 36.9402C46.15 36.6502 46.29 35.9302 45.9 35.4502L44.89 34.2302L46.47 34.0802C47.09 34.0202 47.5 33.4102 47.31 32.8202L46.84 31.3002L48.36 31.7702C48.95 31.9502 49.57 31.5402 49.62 30.9302L49.77 29.3502L50.99 30.3602C51.47 30.7602 52.19 30.6102 52.48 30.0602L53.22 28.6602Z" fill="#FFC271" stroke="#E59E19" stroke-width="2" stroke-linecap="round" stroke-linejoin="round"/>
<path d="M53.22 42.2299C55.7274 42.2299 57.76 40.1973 57.76 37.6899C57.76 35.1825 55.7274 33.1499 53.22 33.1499C50.7126 33.1499 48.68 35.1825 48.68 37.6899C48.68 40.1973 50.7126 42.2299 53.22 42.2299Z" fill="white" stroke="#E59E19" stroke-width="2" stroke-linecap="round" stroke-linejoin="round"/>
<path d="M28.4 49.2899C30.28 48.9999 32.01 48.0299 33.42 46.7599C34.25 46.0099 35.03 45.0799 35.14 43.9599C35.15 43.8199 35.16 43.6699 35.08 43.5499C34.92 43.2799 34.51 43.3199 34.22 43.4599C33.66 43.7399 33.25 44.2499 32.95 44.7999C32.16 46.1999 31.92 47.8399 31.5 49.3899C30.86 51.7999 29.78 54.0999 28.35 56.1499C28.14 56.4499 27.86 56.7699 27.5 56.7499C27.07 56.7199 26.74 56.2399 26.76 55.8099C26.81 54.5799 26.91 54.3099 27.45 53.3299C27.99 52.3499 28.8 51.5399 29.71 50.8999C30.47 50.3699 31.31 49.9299 32.21 49.7299C32.87 49.5899 33.65 49.5999 34.13 50.0899C34.56 50.5199 34.62 51.1999 34.56 51.8099C34.5 52.4099 34.27 52.2599 34.04 52.8199C34.71 51.8299 35.39 50.8399 36.22 49.9799C37.05 49.1199 38.06 48.3999 39.21 48.0799C39.49 47.9999 39.8 47.9499 40.07 48.0499C40.64 48.2699 40.77 49.0099 40.71 49.6099C40.63 50.5399 40.31 51.4499 39.8 52.2299" stroke="#E59E19" stroke-width="2" stroke-linecap="round" stroke-linejoin="round"/>
</svg>
