<svg width="80" height="80" viewBox="0 0 80 80" fill="none" xmlns="http://www.w3.org/2000/svg">
<path d="M39.99 76.3101C59.8722 76.3101 75.99 60.1923 75.99 40.3101C75.99 20.4278 59.8722 4.31006 39.99 4.31006C20.1077 4.31006 3.98999 20.4278 3.98999 40.3101C3.98999 60.1923 20.1077 76.3101 39.99 76.3101Z" fill="#DDF0FF"/>
<path d="M23.55 60.4599H53.33C55.25 60.4599 56.8 58.8999 56.8 56.9899V53.7799H53.12V18.4399H20.08V56.9899C20.08 58.9099 21.64 60.4599 23.55 60.4599Z" fill="white"/>
<path d="M23.51 60.4598C25.43 60.4598 26.98 58.8998 26.98 56.9898V53.7798H56.7V56.9898C56.7 58.9098 55.14 60.4598 53.23 60.4598H23.51Z" fill="#A7D8FE" stroke="#198DE5" stroke-width="2" stroke-linecap="round" stroke-linejoin="round"/>
<path d="M19.97 56.9899V18.4399H53.02V53.7799H26.98V56.9899C26.98 58.9099 25.42 60.4599 23.51 60.4599H23.44C21.52 60.4599 19.97 58.8999 19.97 56.9899Z" stroke="#198DE5" stroke-width="2" stroke-linecap="round" stroke-linejoin="round"/>
<path d="M37.99 48.3799H24.58" stroke="#198DE5" stroke-width="2" stroke-linecap="round" stroke-linejoin="round"/>
<path d="M38.13 43.6001H24.58" stroke="#198DE5" stroke-width="2" stroke-linecap="round" stroke-linejoin="round"/>
<path d="M38.76 38.8101H24.58" stroke="#198DE5" stroke-width="2" stroke-linecap="round" stroke-linejoin="round"/>
<path d="M70.8987 22.04C70.8987 22.04 69.6687 24.5 65.9787 25.31C64.5787 25.62 60.5987 24.91 59.5987 29.04L58.1187 29.06L57.3187 27.03L57.4387 22.03L53.4087 22.08H53.3887C52.9987 22.09 52.6287 22.27 52.3487 22.55C52.0687 22.84 51.9187 23.23 51.9287 23.62L51.9887 27L51.4287 29.17H50.6887C49.7487 24.87 45.6787 25.6 44.2687 25.29C40.5787 24.48 39.3487 22.02 39.3487 22.02C39.3487 22.02 37.3487 39.47 50.5087 36.39V35.87C50.5687 36.22 50.6487 36.56 50.7687 36.89C51.2487 38.2 52.2487 39.33 53.2987 40.01L50.6187 49.03C51.3287 49.23 52.0487 49.37 52.7687 49.47C53.8687 49.62 54.9387 49.02 55.3687 48C55.7887 49 56.8487 49.57 57.9187 49.39C58.6587 49.27 59.3987 49.09 60.1187 48.87L57.1187 39.91C58.1487 39.19 59.1187 38 59.5387 36.67C59.6087 36.43 59.6687 36.19 59.7087 35.95V36.37C72.8887 39.45 70.8787 22 70.8787 22L70.8987 22.04Z" fill="#A7D8FE"/>
<path d="M51.9587 24.3499L50.7687 23.8799" stroke="#198DE5" stroke-width="2" stroke-linecap="round" stroke-linejoin="round"/>
<path d="M59.5287 35.2C59.5287 35.71 59.4587 36.21 59.3087 36.69C58.8887 38.03 57.9187 39.22 56.8887 39.94C56.2387 40.4 55.5487 40.67 54.9687 40.69C54.3887 40.71 53.7287 40.46 53.0587 40.04C52.0187 39.36 51.0087 38.23 50.5287 36.92C50.3487 36.42 50.2287 35.91 50.2187 35.38L50.1087 29.22L54.7587 29.14V29.12L59.4187 29.04L59.5287 35.2Z" stroke="#198DE5" stroke-width="2" stroke-linecap="round" stroke-linejoin="round"/>
<path d="M44.3687 41.5801C46.0987 43.7901 48.3787 45.4801 50.9687 46.4401" stroke="#198DE5" stroke-width="2" stroke-linecap="round" stroke-linejoin="round"/>
<path d="M59.0887 46.4598C61.7587 45.4298 64.0887 43.6098 65.7887 41.2798" stroke="#198DE5" stroke-width="2" stroke-linecap="round" stroke-linejoin="round"/>
<path d="M50.5387 36.9102L47.8087 44.6302" stroke="#198DE5" stroke-width="2" stroke-linecap="round" stroke-linejoin="round"/>
<path d="M62.4087 44.5902L59.3087 36.7002" stroke="#198DE5" stroke-width="2" stroke-linecap="round" stroke-linejoin="round"/>
<path d="M53.2787 22.0798L57.4287 22.0098L57.3187 26.5798L57.6487 29.0098L51.3287 29.0798L51.9687 26.5798L51.9187 23.4898C51.9087 23.1298 52.0487 22.7698 52.2987 22.5098C52.5487 22.2498 52.8887 22.0898 53.2487 22.0898H53.2687L53.2787 22.0798Z" stroke="#198DE5" stroke-width="2" stroke-linecap="round" stroke-linejoin="round"/>
<path d="M50.4487 29.1798C49.5087 24.8798 45.4387 25.6098 44.0287 25.2998C40.3387 24.4898 39.1087 22.0298 39.1087 22.0298C39.1087 22.0298 37.1087 39.4798 50.2687 36.3998" stroke="#198DE5" stroke-width="2" stroke-linecap="round" stroke-linejoin="round"/>
<path d="M59.4887 36.41C72.6487 39.49 70.6487 22.04 70.6487 22.04C70.6487 22.04 69.4187 24.5 65.7287 25.31C64.3087 25.62 60.2487 24.89 59.3087 29.19" stroke="#198DE5" stroke-width="2" stroke-linecap="round" stroke-linejoin="round"/>
<path d="M56.8887 39.9399L59.8887 48.8999C59.1587 49.1199 58.4287 49.2899 57.6887 49.4199C56.6187 49.5999 55.5587 49.0299 55.1387 48.0299C54.7087 49.0499 53.6387 49.6499 52.5387 49.4999C51.8187 49.3999 51.0987 49.2599 50.3887 49.0599L53.0687 40.0399" stroke="#198DE5" stroke-width="2" stroke-linecap="round" stroke-linejoin="round"/>
<path d="M29 33C32.3137 33 35 30.3137 35 27C35 23.6863 32.3137 21 29 21C25.6863 21 23 23.6863 23 27C23 30.3137 25.6863 33 29 33Z" fill="white" stroke="#198DE5" stroke-width="2" stroke-linecap="round" stroke-linejoin="round"/>
<path d="M29 24L29.7143 25.51C29.8476 25.8 30.1143 25.99 30.4095 26.04L32 26.29L30.8571 27.47C30.6381 27.69 30.5429 28.01 30.5905 28.33L30.8571 30L29.4286 29.22C29.1619 29.07 28.8381 29.07 28.5714 29.22L27.1429 30L27.4095 28.33C27.4571 28.01 27.3619 27.69 27.1429 27.47L26 26.29L27.5905 26.04C27.8952 25.99 28.1524 25.79 28.2857 25.51L29 24Z" fill="#198DE5" stroke="#198DE5" stroke-linecap="round" stroke-linejoin="round"/>
</svg>
